$$  $$ $$$$$  $$$$$  $$$$$
$$  $$ $$  $$ $$  $$ $$  $$
$$$$$$ $$  $$ $$$$   $$$$ 
$$  $$ $$  $$ $$ $$  $$ $$
$$  $$ $$$$$  $$  $$ $$  $$
 HD DESI ROCKERS RELEASES

Harry Potter and the Prisoner of Azkaban is the third instalment in the Harry Potter series written by J. K. Rowling. The book was published on 8 July 1999. The novel won the 1999 Whitbread Book Award, the Bram Stoker Award, the 2000 Locus Award and was short-listed for other awards, including the Hugo.[1] This placed the novel among the most-honoured works of fantasy in recent history. A film based on the novel was released on 31 May 2004, in the United Kingdom and 4 June 2004 in the U.S. and many other countries. This is the only novel in the series that does not feature Lord Voldemort in some form.

General
Complete name                    : Harry.Potter.3[Eng-Hindi]Dual.Audio[BrRip]720p-ahl07.mkv
Original name                    : Harry Potter and the prisoner of azkaban
Format                           : Matroska
File size                        : 750 MiB
Duration                         : 2h 15mn
Overall bit rate                 : 771 Kbps
Writing application              : AVI-Mux GUI 1.17.8.3, Feb 16 201019:42:50
Writing library                  : matroska muxer by Alexander Noe, build date Feb 16 2010

Video
ID                               : 1
Format                           : AVC
Format/Info                      : Advanced Video Codec
Format profile                   : High@L3.1
Format settings, CABAC           : Yes
Format settings, ReFrames        : 5 frames
Muxing mode                      : Container profile=Unknown@3.1
Codec ID                         : V_MPEG4/ISO/AVC
Duration                         : 2h 15mn
Bit rate                         : 504 Kbps
Width                            : 1 280 pixels
Height                           : 528 pixels
Display aspect ratio             : 2.40:1
Frame rate                       : 25.000 fps
Original frame rate              : 23.976 fps
Color space                      : YUV
Chroma subsampling               : 4:2:0
Bit depth                        : 8 bits
Scan type                        : Progressive
Bits/(Pixel*Frame)               : 0.030
Stream size                      : 486 MiB (65%)
Writing library                  : x264 core 67 r1139M 1024283


Audio #1
ID                               : 2
Format                           : MPEG Audio
Format version                   : Version 1
Format profile                   : Layer 3
Mode                             : Joint stereo
Mode extension                   : MS Stereo
Codec ID                         : A_MPEG/L3
Codec ID/Hint                    : MP3
Duration                         : 2h 15mn
Bit rate mode                    : Constant
Bit rate                         : 96.0 Kbps
Channel(s)                       : 2 channels
Sampling rate                    : 48.0 KHz
Stream size                      : 93.3 MiB (12%)
Writing library                  : LAME3.96.1
Language                         : English

Audio #2
ID                               : 3
Format                           : MPEG Audio
Format version                   : Version 1
Format profile                   : Layer 3
Mode                             : Joint stereo
Mode extension                   : MS Stereo
Codec ID                         : A_MPEG/L3
Codec ID/Hint                    : MP3
Duration                         : 2h 15mn
Bit rate mode                    : Constant
Bit rate                         : 160 Kbps
Channel(s)                       : 2 channels
Sampling rate                    : 48.0 KHz
Video delay                      : 5s 700ms
Stream size                      : 156 MiB (21%)
Language                         : Hindi


INITIAL SEEDING TIME WILL BE 2:00AM - 8:00AM IST
Plz seed after Download and below are the screenshots



SCREEN
 
http://img15.imageshack.us/img15/9667/91667968.png 
http://img688.imageshack.us/img688/3757/95839027.png 
http://img145.imageshack.us/img145/9829/52972146.png 
http://img526.imageshack.us/img526/8132/69870673.png 
http://img638.imageshack.us/img638/188/52789054.png 
http://img689.imageshack.us/img689/5091/49736061.png 
http://img31.imageshack.us/img31/8602/92394207.png 
http://img190.imageshack.us/img190/8123/69428045.png 
http://img706.imageshack.us/img706/5188/95565073.png 
http://img824.imageshack.us/img824/1194/81667431.png